<svg xmlns="http://www.w3.org/2000/svg" height="512" preserveAspectRatio="none" style="display: block;" version="1.1" viewBox="0 0 2048 2048" width="512">
<defs>
	<linearGradient gradientUnits="userSpaceOnUse" id="Gradient1" x1="957.835" x2="1256.27" y1="1336.08" y2="353.864">
		<stop class="stop0" offset="0" stop-color="rgb(56, 189, 248)" stop-opacity="1"></stop>
		<stop class="stop1" offset="1" stop-color="rgb(99, 102, 241)" stop-opacity="1"></stop>
	</linearGradient>
	<linearGradient gradientUnits="userSpaceOnUse" id="Gradient2" x1="580.486" x2="1497.45" y1="1755.05" y2="287.655">
		<stop class="stop0" offset="0" stop-color="rgb(34, 211, 238)" stop-opacity="1"></stop>
		<stop class="stop1" offset="1" stop-color="rgb(168, 85, 247)" stop-opacity="1"></stop>
	</linearGradient>
</defs>
<path d="M 1250.6 284.975 C 1271.93 283.642 1309.41 284.976 1332.42 284.974 L 1422.79 284.942 C 1437.82 284.931 1482.05 283.693 1494.45 287.49 C 1571.12 327.734 1567.15 364.542 1567.09 443.372 L 1567.03 1219.43 C 1567.03 1301.65 1568.2 1386.77 1567.03 1468.72 L 1567.08 1614.69 C 1567.08 1639.79 1567.98 1667.17 1565.69 1692.19 C 1553.07 1768.06 1473.92 1757.74 1416.78 1757.68 L 674.352 1757.72 C 653.631 1757.74 629.165 1758.86 608.72 1757.18 C 549.925 1752.34 494.352 1700.18 483.813 1642.5 C 480.125 1622.32 481.35 1601.14 481.378 1580.95 L 481.41 516.772 C 481.406 468.063 475.069 398.138 503.539 356.89 C 533.471 284.206 632.005 284.894 694.91 284.954 L 1202.5 285.017 C 1217.57 284.966 1235.75 284.348 1250.6 284.975 z M 689.057 319.927 L 689.182 1237.96 C 689.214 1242.94 689.666 1259.3 689.057 1263.52 C 690.415 1313.37 689.054 1370.09 689.057 1420.45 C 689.728 1425.06 689.15 1427.68 692.029 1429.94 C 714.479 1428 745.156 1428.98 768.545 1428.99 L 1408.01 1429.08 C 1466.5 1429.14 1498.77 1437.21 1530.99 1379.46 C 1531.38 1369.49 1531.04 1357.81 1530.99 1347.71 L 1531.02 423.854 C 1530.95 353.4 1532.26 360.758 1483.52 320.864 L 1482.4 319.927 C 1464.1 320.943 1438.13 319.943 1418.92 319.936 L 889.133 319.927 L 755.693 319.96 C 735.762 319.965 708.463 320.839 689.057 319.927 z M 1530.99 1661.24 L 1531.07 1594.51 C 1531.15 1585.28 1532.2 1567.2 1530.99 1558.97 C 1523.38 1558.65 1518.12 1558.43 1510.56 1558.97 L 665.912 1558.91 C 655.577 1558.9 642.427 1558.15 632.394 1559.31 C 579.462 1565.42 571.173 1631.66 615.769 1656.26 C 634.279 1663.08 645.816 1661.24 665.268 1661.25 L 1530.99 1661.24 z M 1519.68 1462.41 C 1523.57 1462.59 1528.75 1463.61 1531.45 1460.68 L 1530.99 1457.62 C 1529.82 1452.32 1532.35 1442.29 1527.45 1449.9 C 1477.23 1459.25 1502.25 1453.12 1505.72 1456.26 C 1501.21 1457.31 1486.68 1458.34 1486.21 1458.64 C 1492.3 1458.55 1516.06 1458.99 1519.68 1462.41 z M 1528.83 1695.11 C 1499.41 1696 1466.03 1695.11 1436.15 1695.1 L 683.5 1695.11 C 645.434 1695.24 607.588 1700.45 578.372 1670.15 C 546.339 1636.93 543.58 1581.84 577.966 1549.04 C 605.725 1522.57 632.845 1524.59 668.597 1524.54 L 1332.67 1524.56 C 1397.86 1524.56 1466.02 1523.5 1530.99 1524.56 C 1531.76 1513.25 1531.98 1506.54 1530.99 1495.23 L 719.191 1495.21 C 688.284 1495.2 649.608 1494.12 619.167 1495.23 C 520.181 1506.38 474.83 1638.45 557.075 1702.18 C 591.825 1729.11 623.594 1724.52 664.778 1724.51 L 1440.57 1724.48 C 1476.21 1724.48 1509.31 1731.7 1528.83 1695.11 z M 553.61 1451.93 C 552.314 1443.03 553.473 1426.6 553.515 1416.97 L 553.588 541.76 C 553.602 461.258 546.448 381.47 653.854 369.013 L 653.854 319.927 C 605.413 319.534 560.285 328.503 533.384 374.581 C 531.645 377.56 528.476 384.281 526.586 386.667 C 513.134 420.875 514.943 435.33 514.931 471.496 L 514.968 1492.08 C 528.115 1477.04 536.319 1464.03 553.61 1451.93 z" fill="url(#Gradient2)" transform="translate(0,0)"></path>
<path d="M 1250.6 284.975 C 1271.93 283.642 1309.41 284.976 1332.42 284.974 L 1422.79 284.942 C 1437.82 284.931 1482.05 283.693 1494.45 287.49 C 1489.24 290.052 1397.85 284.915 1383.58 284.961 L 1295.05 285.009 C 1282.86 285.045 1261.5 286.004 1250.6 284.975 z" fill="rgb(56, 189, 248)" transform="translate(0,0)"></path>
<path d="M 881.741 376.486 L 1340.58 376.486 C 1365.5 395.071 1344.21 454.979 1424.85 481.866 C 1444.02 488.261 1471.6 476.794 1471.7 503.897 L 1471.79 1081.6 C 1471.8 1109.34 1479.99 1183.93 1461.14 1200.18 C 1444.54 1203.9 1434.69 1201.44 1415.14 1209.01 C 1340.11 1236.2 1357.97 1304.28 1333.22 1312.88 L 917.378 1312.9 C 851.493 1312.9 868.507 1322.31 851.465 1271.94 C 826.373 1197.78 758.166 1212.48 745.615 1191.28 C 743.508 1167.14 744.751 1127.73 744.747 1102.52 L 744.646 503.773 C 744.594 472.654 830.421 500.101 852.252 412.089 C 858.898 385.295 850.62 377.345 881.741 376.486 z M 779.889 521.132 L 779.889 1169.08 C 838.459 1178.43 875.881 1222.35 889.133 1278.32 L 1316.03 1278.32 L 1316.03 1268.99 C 1336.84 1216.33 1373.96 1170.31 1436.02 1169.08 L 1436.02 521.132 C 1373.24 511.037 1335.77 473.752 1318.61 413.005 L 889.133 413.005 C 873.172 474.574 844.92 504.403 779.889 521.132 z" fill="url(#Gradient1)" transform="translate(0,0)"></path>
<path d="M 1091.74 568.498 C 1150.07 564.653 1156.97 578.403 1161.53 631.504 C 1181.87 636.175 1200.93 646.637 1219.94 655.363 C 1237.27 631.882 1260 617.062 1285.65 640.699 C 1329.05 680.687 1328.16 689.496 1292.72 730.107 C 1302.22 750.552 1306.87 758.7 1313.07 780.505 C 1336.5 780.453 1360.12 780.296 1364.23 809.359 C 1372.23 865.892 1364.32 875.951 1316.03 885.319 C 1311.01 906.249 1301.6 925.97 1292.72 945.477 C 1346.57 978.848 1307.83 1007.69 1278.52 1036.67 C 1269.97 1045.13 1260.99 1043.93 1250.6 1042.87 C 1238.45 1037.01 1229.58 1027.36 1219.94 1017.99 C 1196.84 1029.56 1185.98 1033.9 1161.53 1042.87 C 1162.28 1078.4 1165.98 1094.88 1124.56 1101.02 C 1069.87 1102.89 1052.26 1100.16 1054.98 1042.87 C 1031.61 1037.84 1017.24 1032.16 997.547 1017.99 C 982.351 1029.22 981.361 1039.31 959.492 1045.52 C 940.771 1041.47 940.585 1035.94 927.726 1024.32 C 894.281 994.092 886.369 977.206 925.463 945.477 C 911.273 927.628 902.508 908.075 900.091 885.319 C 856.292 886.82 843.368 884.091 843.827 836.174 C 844.292 787.634 852.128 783.329 900.091 783.723 C 907.97 761.016 914.32 746.797 925.463 725.863 C 893.632 695.261 896.673 682.785 923.005 653.954 C 952.163 622.028 973.151 616.785 1000.65 655.363 C 1019.33 639.912 1031.3 636.201 1054.98 631.504 C 1054.63 603.506 1055.71 572.859 1091.74 568.498 z M 959.492 666.671 C 953.3 673.744 946.418 681.293 940.683 688.66 C 962.432 719.706 981.399 715.788 951.282 755.172 C 913.281 804.865 966.262 820.73 877.843 819.871 L 877.843 849.078 C 917.442 848.818 924.539 840.657 933.102 877.115 C 936.946 893.48 943.791 908.395 952.418 922.645 C 977.805 964.574 964.706 950.425 940.683 982.882 C 946.96 990.993 952.844 998.526 959.492 1006.36 C 997.435 962.016 996.116 977.764 1038.38 998.715 C 1097.37 1029.22 1087.98 984.361 1091.74 1064.31 C 1102.21 1064.43 1112.5 1064.36 1122.92 1065.47 L 1124.43 1064.76 L 1124.56 1064.31 C 1125.15 1001.43 1115.96 1019.44 1176.6 999.755 C 1238.26 979.743 1201.83 950.207 1259.32 1006.36 C 1265.51 1000.14 1276.97 989.208 1282.1 982.882 L 1281.08 981.732 C 1257.68 955.538 1236.79 957.392 1264.73 919.848 C 1293.2 881.586 1263.41 838.32 1323.68 848.021 L 1329.88 849.078 L 1329.88 816.533 C 1266.39 817.035 1294.31 812.371 1270.3 764.402 C 1246.25 716.349 1234.25 729.762 1282.1 688.66 C 1276.61 679.428 1268.27 672.417 1259.32 666.671 C 1211.11 708.921 1235.25 703.633 1171.84 672.59 C 1160.69 667.133 1136.6 665.166 1127.07 655.958 C 1112.17 628.014 1148.47 600.792 1094.88 605.515 L 1092.58 606.721 C 1089.65 619.574 1096.55 653.671 1084 659.126 C 1068.85 665.712 1048.49 667.772 1033.51 676.119 C 977.524 705.255 1005.05 702.002 960.257 667.246 L 959.492 666.671 z" fill="rgb(34, 211, 238)" transform="translate(0,0)"></path>
<path d="M 1101.37 729.521 C 1161.02 726.196 1212.02 771.984 1215.11 831.65 C 1218.21 891.316 1172.22 942.136 1112.55 945.002 C 1053.19 947.852 1002.71 902.171 999.63 842.83 C 996.551 783.488 1042.04 732.828 1101.37 729.521 z M 1110.52 909.418 C 1149.98 907.61 1180.58 874.292 1179.04 834.82 C 1177.5 795.347 1144.39 764.519 1104.91 765.796 C 1065.05 767.085 1033.86 800.582 1035.42 840.432 C 1036.97 880.282 1070.68 911.243 1110.52 909.418 z" fill="rgb(34, 211, 238)" transform="translate(0,0)"></path>
<path d="M 1017.44 1360.07 C 1033.31 1360.33 1068.64 1357.14 1080.95 1363.88 C 1091.35 1369.59 1092.37 1393.76 1069.82 1395.19 C 1052.42 1395.27 1001.52 1400.85 996.076 1381.99 C 992.036 1368.01 1006.01 1361.34 1017.44 1360.07 z" fill="rgb(34, 211, 238)" transform="translate(0,0)"></path>
<path d="M 1227.74 1360.07 C 1239.85 1359.5 1275.46 1358.51 1286.15 1362.25 C 1301.36 1367.57 1301.93 1388.72 1282.1 1395.19 C 1264.8 1395.72 1245.1 1395.49 1227.74 1395.19 C 1209.67 1385.86 1206.77 1364.42 1227.74 1360.07 z" fill="rgb(34, 211, 238)" transform="translate(0,0)"></path>
<path d="M 1130.85 1360.07 C 1144.38 1359.15 1176.98 1355.98 1182.75 1370.33 C 1187.54 1382.28 1181.14 1391.52 1169.79 1395.19 C 1157.69 1395.37 1125.05 1399.2 1118.88 1386.47 C 1113.17 1374.67 1119.87 1365.31 1130.85 1360.07 z" fill="rgb(34, 211, 238)" transform="translate(0,0)"></path>
<path d="M 553.61 1451.93 C 552.314 1443.03 553.473 1426.6 553.515 1416.97 L 553.588 541.76 C 553.602 461.258 546.448 381.47 653.854 369.013 L 653.854 1272.72 C 653.888 1316.16 655.093 1365.69 653.854 1408.63 C 654.778 1424.9 653.766 1445.66 653.854 1462.41 C 590.086 1461.87 561.594 1465.14 514.968 1518.83 L 514.968 1492.08 C 528.115 1477.04 536.319 1464.03 553.61 1451.93 z" fill="rgb(147, 197, 253)" transform="translate(0,0)"></path>
<path d="M 653.854 1408.63 C 654.778 1424.9 653.766 1445.66 653.854 1462.41 C 590.086 1461.87 561.594 1465.14 514.968 1518.83 L 514.968 1492.08 C 528.115 1477.04 536.319 1464.03 553.61 1451.93 C 593.822 1430.26 609.271 1430.72 653.854 1430.96 C 653.681 1423.24 653.589 1416.35 653.854 1408.63 z" fill="rgb(56, 189, 248)" transform="translate(0,0)"></path>
<path d="M 1530.99 1379.46 C 1532.42 1390.19 1532.44 1445.36 1530.99 1457.62 C 1529.82 1452.32 1532.35 1442.29 1527.45 1449.9 C 1477.23 1459.25 1502.25 1453.12 1505.72 1456.26 C 1501.21 1457.31 1486.68 1458.34 1486.21 1458.64 C 1492.3 1458.55 1516.06 1458.99 1519.68 1462.41 L 689.057 1462.41 L 689.057 1420.45 C 689.728 1425.06 689.15 1427.68 692.029 1429.94 C 714.479 1428 745.156 1428.98 768.545 1428.99 L 1408.01 1429.08 C 1466.5 1429.14 1498.77 1437.21 1530.99 1379.46 z" fill="rgb(147, 197, 253)" transform="translate(0,0)"></path>
<path d="M 889.133 319.927 C 897.084 317.766 930.381 318.477 940.606 318.494 L 1251.96 318.577 C 1305.02 318.585 1359.28 320.064 1411.99 314.805 C 1418.83 314.123 1423.55 301.466 1430.96 308.822 L 1430.82 310.304 C 1420.74 316.844 1445.47 304.581 1453.21 305.126 C 1476.21 322.746 1471.74 313.409 1482.4 319.927 C 1464.1 320.943 1438.13 319.943 1418.92 319.936 L 889.133 319.927 z" fill="rgb(56, 189, 248)" transform="translate(0,0)"></path>
</svg>